# xmcd
#
# Track frame offsets:
#	150
#	13783
#	29222
#	42930
#	54964
#	63808
#	80534
#	97426
#	111544
#	125475
#
# Disc length: 1848 seconds
#
# Revision: 2
# Processed by: cddbd v1.5.2PL0 Copyright (c) Steve Scherf et al.
# Submitted via: audiograbber 1.83.01
#
DISCID=8e07360a
DTITLE=Various Artist - CDX 284
DYEAR=2002
DGENRE=Country
TTITLE0=Andy Griggs - Tonight I wanna be your man
TTITLE1=Hank Williams III - Mississippi Mud
TTITLE2=B.B. Watson - Drivin' under the influence of love
TTITLE3=Dave Dudley - I'm proud to say I drive a truck
TTITLE4=Dale Watson and The Jordanaires - In the jailhouse now
TTITLE5=David Ball - She always talked about mexico
TTITLE6=Danni Leigh - Sometimes
TTITLE7=Gene Watson - The man an' me and you
TTITLE8=Holly Wynnette - My future ex-boyfriend
TTITLE9=Keith Bryant - Welcome to Love
EXTD=
EXTT0=
EXTT1=
EXTT2=
EXTT3=
EXTT4=
EXTT5=
EXTT6=
EXTT7=
EXTT8=
EXTT9=
PLAYORDER=
